<?xml version="1.0" encoding="utf-8"?>
<svg xmlns="http://www.w3.org/2000/svg" xmlns:xlink="http://www.w3.org/1999/xlink" width="600" height="400" viewBox="0 0 2400 1600">
<defs>
  <clipPath id="clip600">
    <rect x="0" y="0" width="2400" height="1600"/>
  </clipPath>
</defs>
<path clip-path="url(#clip600)" d="M0 1600 L2400 1600 L2400 0 L0 0  Z" fill="#ffffff" fill-rule="evenodd" fill-opacity="1"/>
<defs>
  <clipPath id="clip601">
    <rect x="202" y="47" width="2152" height="1377"/>
  </clipPath>
</defs>
<path clip-path="url(#clip600)" d="M202.135 1423.18 L2352.76 1423.18 L2352.76 47.2441 L202.135 47.2441  Z" fill="#ffffff" fill-rule="evenodd" fill-opacity="1"/>
<polyline clip-path="url(#clip601)" style="stroke:#000000; stroke-linecap:round; stroke-linejoin:round; stroke-width:2; stroke-opacity:0.1; fill:none" points="394.04,1423.18 394.04,47.2441 "/>
<polyline clip-path="url(#clip601)" style="stroke:#000000; stroke-linecap:round; stroke-linejoin:round; stroke-width:2; stroke-opacity:0.1; fill:none" points="762.126,1423.18 762.126,47.2441 "/>
<polyline clip-path="url(#clip601)" style="stroke:#000000; stroke-linecap:round; stroke-linejoin:round; stroke-width:2; stroke-opacity:0.1; fill:none" points="1130.21,1423.18 1130.21,47.2441 "/>
<polyline clip-path="url(#clip601)" style="stroke:#000000; stroke-linecap:round; stroke-linejoin:round; stroke-width:2; stroke-opacity:0.1; fill:none" points="1498.3,1423.18 1498.3,47.2441 "/>
<polyline clip-path="url(#clip601)" style="stroke:#000000; stroke-linecap:round; stroke-linejoin:round; stroke-width:2; stroke-opacity:0.1; fill:none" points="1866.38,1423.18 1866.38,47.2441 "/>
<polyline clip-path="url(#clip601)" style="stroke:#000000; stroke-linecap:round; stroke-linejoin:round; stroke-width:2; stroke-opacity:0.1; fill:none" points="2234.47,1423.18 2234.47,47.2441 "/>
<polyline clip-path="url(#clip601)" style="stroke:#000000; stroke-linecap:round; stroke-linejoin:round; stroke-width:2; stroke-opacity:0.1; fill:none" points="202.135,1423.18 2352.76,1423.18 "/>
<polyline clip-path="url(#clip601)" style="stroke:#000000; stroke-linecap:round; stroke-linejoin:round; stroke-width:2; stroke-opacity:0.1; fill:none" points="202.135,1193.86 2352.76,1193.86 "/>
<polyline clip-path="url(#clip601)" style="stroke:#000000; stroke-linecap:round; stroke-linejoin:round; stroke-width:2; stroke-opacity:0.1; fill:none" points="202.135,964.535 2352.76,964.535 "/>
<polyline clip-path="url(#clip601)" style="stroke:#000000; stroke-linecap:round; stroke-linejoin:round; stroke-width:2; stroke-opacity:0.1; fill:none" points="202.135,735.212 2352.76,735.212 "/>
<polyline clip-path="url(#clip601)" style="stroke:#000000; stroke-linecap:round; stroke-linejoin:round; stroke-width:2; stroke-opacity:0.1; fill:none" points="202.135,505.889 2352.76,505.889 "/>
<polyline clip-path="url(#clip601)" style="stroke:#000000; stroke-linecap:round; stroke-linejoin:round; stroke-width:2; stroke-opacity:0.1; fill:none" points="202.135,276.567 2352.76,276.567 "/>
<polyline clip-path="url(#clip601)" style="stroke:#000000; stroke-linecap:round; stroke-linejoin:round; stroke-width:2; stroke-opacity:0.1; fill:none" points="202.135,47.2441 2352.76,47.2441 "/>
<polyline clip-path="url(#clip600)" style="stroke:#000000; stroke-linecap:round; stroke-linejoin:round; stroke-width:4; stroke-opacity:1; fill:none" points="202.135,1423.18 2352.76,1423.18 "/>
<polyline clip-path="url(#clip600)" style="stroke:#000000; stroke-linecap:round; stroke-linejoin:round; stroke-width:4; stroke-opacity:1; fill:none" points="394.04,1423.18 394.04,1404.28 "/>
<polyline clip-path="url(#clip600)" style="stroke:#000000; stroke-linecap:round; stroke-linejoin:round; stroke-width:4; stroke-opacity:1; fill:none" points="762.126,1423.18 762.126,1404.28 "/>
<polyline clip-path="url(#clip600)" style="stroke:#000000; stroke-linecap:round; stroke-linejoin:round; stroke-width:4; stroke-opacity:1; fill:none" points="1130.21,1423.18 1130.21,1404.28 "/>
<polyline clip-path="url(#clip600)" style="stroke:#000000; stroke-linecap:round; stroke-linejoin:round; stroke-width:4; stroke-opacity:1; fill:none" points="1498.3,1423.18 1498.3,1404.28 "/>
<polyline clip-path="url(#clip600)" style="stroke:#000000; stroke-linecap:round; stroke-linejoin:round; stroke-width:4; stroke-opacity:1; fill:none" points="1866.38,1423.18 1866.38,1404.28 "/>
<polyline clip-path="url(#clip600)" style="stroke:#000000; stroke-linecap:round; stroke-linejoin:round; stroke-width:4; stroke-opacity:1; fill:none" points="2234.47,1423.18 2234.47,1404.28 "/>
<path clip-path="url(#clip600)" d="M368.728 1481.64 L376.366 1481.64 L376.366 1455.28 L368.056 1456.95 L368.056 1452.69 L376.32 1451.02 L380.996 1451.02 L380.996 1481.64 L388.635 1481.64 L388.635 1485.58 L368.728 1485.58 L368.728 1481.64 Z" fill="#000000" fill-rule="nonzero" fill-opacity="1" /><path clip-path="url(#clip600)" d="M408.079 1454.1 Q404.468 1454.1 402.639 1457.66 Q400.834 1461.2 400.834 1468.33 Q400.834 1475.44 402.639 1479.01 Q404.468 1482.55 408.079 1482.55 Q411.713 1482.55 413.519 1479.01 Q415.348 1475.44 415.348 1468.33 Q415.348 1461.2 413.519 1457.66 Q411.713 1454.1 408.079 1454.1 M408.079 1450.39 Q413.889 1450.39 416.945 1455 Q420.024 1459.58 420.024 1468.33 Q420.024 1477.06 416.945 1481.67 Q413.889 1486.25 408.079 1486.25 Q402.269 1486.25 399.19 1481.67 Q396.135 1477.06 396.135 1468.33 Q396.135 1459.58 399.19 1455 Q402.269 1450.39 408.079 1450.39 Z" fill="#000000" fill-rule="nonzero" fill-opacity="1" /><path clip-path="url(#clip600)" d="M737.311 1481.64 L744.95 1481.64 L744.95 1455.28 L736.64 1456.95 L736.64 1452.69 L744.903 1451.02 L749.579 1451.02 L749.579 1481.64 L757.218 1481.64 L757.218 1485.58 L737.311 1485.58 L737.311 1481.64 Z" fill="#000000" fill-rule="nonzero" fill-opacity="1" /><path clip-path="url(#clip600)" d="M766.709 1451.02 L785.065 1451.02 L785.065 1454.96 L770.991 1454.96 L770.991 1463.43 Q772.01 1463.08 773.028 1462.92 Q774.047 1462.73 775.065 1462.73 Q780.852 1462.73 784.232 1465.9 Q787.612 1469.08 787.612 1474.49 Q787.612 1480.07 784.139 1483.17 Q780.667 1486.25 774.348 1486.25 Q772.172 1486.25 769.903 1485.88 Q767.658 1485.51 765.251 1484.77 L765.251 1480.07 Q767.334 1481.2 769.556 1481.76 Q771.778 1482.32 774.255 1482.32 Q778.26 1482.32 780.598 1480.21 Q782.936 1478.1 782.936 1474.49 Q782.936 1470.88 780.598 1468.77 Q778.26 1466.67 774.255 1466.67 Q772.38 1466.67 770.505 1467.08 Q768.653 1467.5 766.709 1468.38 L766.709 1451.02 Z" fill="#000000" fill-rule="nonzero" fill-opacity="1" /><path clip-path="url(#clip600)" d="M1108.98 1481.64 L1125.3 1481.64 L1125.3 1485.58 L1103.36 1485.58 L1103.36 1481.64 Q1106.02 1478.89 1110.6 1474.26 Q1115.21 1469.61 1116.39 1468.27 Q1118.64 1465.74 1119.52 1464.01 Q1120.42 1462.25 1120.42 1460.56 Q1120.42 1457.8 1118.48 1456.07 Q1116.55 1454.33 1113.45 1454.33 Q1111.25 1454.33 1108.8 1455.09 Q1106.37 1455.86 1103.59 1457.41 L1103.59 1452.69 Q1106.41 1451.55 1108.87 1450.97 Q1111.32 1450.39 1113.36 1450.39 Q1118.73 1450.39 1121.92 1453.08 Q1125.12 1455.77 1125.12 1460.26 Q1125.12 1462.39 1124.31 1464.31 Q1123.52 1466.2 1121.41 1468.8 Q1120.84 1469.47 1117.73 1472.69 Q1114.63 1475.88 1108.98 1481.64 Z" fill="#000000" fill-rule="nonzero" fill-opacity="1" /><path clip-path="url(#clip600)" d="M1145.12 1454.1 Q1141.51 1454.1 1139.68 1457.66 Q1137.87 1461.2 1137.87 1468.33 Q1137.87 1475.44 1139.68 1479.01 Q1141.51 1482.55 1145.12 1482.55 Q1148.75 1482.55 1150.56 1479.01 Q1152.39 1475.44 1152.39 1468.33 Q1152.39 1461.2 1150.56 1457.66 Q1148.75 1454.1 1145.12 1454.1 M1145.12 1450.39 Q1150.93 1450.39 1153.98 1455 Q1157.06 1459.58 1157.06 1468.33 Q1157.06 1477.06 1153.98 1481.67 Q1150.93 1486.25 1145.12 1486.25 Q1139.31 1486.25 1136.23 1481.67 Q1133.17 1477.06 1133.17 1468.33 Q1133.17 1459.58 1136.23 1455 Q1139.31 1450.39 1145.12 1450.39 Z" fill="#000000" fill-rule="nonzero" fill-opacity="1" /><path clip-path="url(#clip600)" d="M1477.57 1481.64 L1493.89 1481.64 L1493.89 1485.58 L1471.94 1485.58 L1471.94 1481.64 Q1474.6 1478.89 1479.19 1474.26 Q1483.79 1469.61 1484.98 1468.27 Q1487.22 1465.74 1488.1 1464.01 Q1489 1462.25 1489 1460.56 Q1489 1457.8 1487.06 1456.07 Q1485.14 1454.33 1482.04 1454.33 Q1479.84 1454.33 1477.38 1455.09 Q1474.95 1455.86 1472.17 1457.41 L1472.17 1452.69 Q1475 1451.55 1477.45 1450.97 Q1479.91 1450.39 1481.94 1450.39 Q1487.31 1450.39 1490.51 1453.08 Q1493.7 1455.77 1493.7 1460.26 Q1493.7 1462.39 1492.89 1464.31 Q1492.1 1466.2 1490 1468.8 Q1489.42 1469.47 1486.32 1472.69 Q1483.22 1475.88 1477.57 1481.64 Z" fill="#000000" fill-rule="nonzero" fill-opacity="1" /><path clip-path="url(#clip600)" d="M1503.75 1451.02 L1522.1 1451.02 L1522.1 1454.96 L1508.03 1454.96 L1508.03 1463.43 Q1509.05 1463.08 1510.07 1462.92 Q1511.09 1462.73 1512.1 1462.73 Q1517.89 1462.73 1521.27 1465.9 Q1524.65 1469.08 1524.65 1474.49 Q1524.65 1480.07 1521.18 1483.17 Q1517.71 1486.25 1511.39 1486.25 Q1509.21 1486.25 1506.94 1485.88 Q1504.7 1485.51 1502.29 1484.77 L1502.29 1480.07 Q1504.37 1481.2 1506.6 1481.76 Q1508.82 1482.32 1511.29 1482.32 Q1515.3 1482.32 1517.64 1480.21 Q1519.97 1478.1 1519.97 1474.49 Q1519.97 1470.88 1517.64 1468.77 Q1515.3 1466.67 1511.29 1466.67 Q1509.42 1466.67 1507.54 1467.08 Q1505.69 1467.5 1503.75 1468.38 L1503.75 1451.02 Z" fill="#000000" fill-rule="nonzero" fill-opacity="1" /><path clip-path="url(#clip600)" d="M1855.22 1466.95 Q1858.58 1467.66 1860.46 1469.93 Q1862.35 1472.2 1862.35 1475.53 Q1862.35 1480.65 1858.84 1483.45 Q1855.32 1486.25 1848.84 1486.25 Q1846.66 1486.25 1844.35 1485.81 Q1842.05 1485.39 1839.6 1484.54 L1839.6 1480.02 Q1841.54 1481.16 1843.86 1481.74 Q1846.17 1482.32 1848.7 1482.32 Q1853.1 1482.32 1855.39 1480.58 Q1857.7 1478.84 1857.7 1475.53 Q1857.7 1472.48 1855.55 1470.77 Q1853.42 1469.03 1849.6 1469.03 L1845.57 1469.03 L1845.57 1465.19 L1849.79 1465.19 Q1853.23 1465.19 1855.06 1463.82 Q1856.89 1462.43 1856.89 1459.84 Q1856.89 1457.18 1854.99 1455.77 Q1853.12 1454.33 1849.6 1454.33 Q1847.68 1454.33 1845.48 1454.75 Q1843.28 1455.16 1840.64 1456.04 L1840.64 1451.88 Q1843.3 1451.14 1845.62 1450.77 Q1847.96 1450.39 1850.02 1450.39 Q1855.34 1450.39 1858.44 1452.83 Q1861.54 1455.23 1861.54 1459.35 Q1861.54 1462.22 1859.9 1464.21 Q1858.26 1466.18 1855.22 1466.95 Z" fill="#000000" fill-rule="nonzero" fill-opacity="1" /><path clip-path="url(#clip600)" d="M1881.22 1454.1 Q1877.61 1454.1 1875.78 1457.66 Q1873.97 1461.2 1873.97 1468.33 Q1873.97 1475.44 1875.78 1479.01 Q1877.61 1482.55 1881.22 1482.55 Q1884.85 1482.55 1886.66 1479.01 Q1888.49 1475.44 1888.49 1468.33 Q1888.49 1461.2 1886.66 1457.66 Q1884.85 1454.1 1881.22 1454.1 M1881.22 1450.39 Q1887.03 1450.39 1890.09 1455 Q1893.16 1459.58 1893.16 1468.33 Q1893.16 1477.06 1890.09 1481.67 Q1887.03 1486.25 1881.22 1486.25 Q1875.41 1486.25 1872.33 1481.67 Q1869.28 1477.06 1869.28 1468.33 Q1869.28 1459.58 1872.33 1455 Q1875.41 1450.39 1881.22 1450.39 Z" fill="#000000" fill-rule="nonzero" fill-opacity="1" /><path clip-path="url(#clip600)" d="M2223.81 1466.95 Q2227.16 1467.66 2229.04 1469.93 Q2230.94 1472.2 2230.94 1475.53 Q2230.94 1480.65 2227.42 1483.45 Q2223.9 1486.25 2217.42 1486.25 Q2215.24 1486.25 2212.93 1485.81 Q2210.64 1485.39 2208.18 1484.54 L2208.18 1480.02 Q2210.13 1481.16 2212.44 1481.74 Q2214.76 1482.32 2217.28 1482.32 Q2221.68 1482.32 2223.97 1480.58 Q2226.29 1478.84 2226.29 1475.53 Q2226.29 1472.48 2224.13 1470.77 Q2222 1469.03 2218.18 1469.03 L2214.16 1469.03 L2214.16 1465.19 L2218.37 1465.19 Q2221.82 1465.19 2223.65 1463.82 Q2225.47 1462.43 2225.47 1459.84 Q2225.47 1457.18 2223.58 1455.77 Q2221.7 1454.33 2218.18 1454.33 Q2216.26 1454.33 2214.06 1454.75 Q2211.86 1455.16 2209.23 1456.04 L2209.23 1451.88 Q2211.89 1451.14 2214.2 1450.77 Q2216.54 1450.39 2218.6 1450.39 Q2223.92 1450.39 2227.03 1452.83 Q2230.13 1455.23 2230.13 1459.35 Q2230.13 1462.22 2228.48 1464.21 Q2226.84 1466.18 2223.81 1466.95 Z" fill="#000000" fill-rule="nonzero" fill-opacity="1" /><path clip-path="url(#clip600)" d="M2239.85 1451.02 L2258.21 1451.02 L2258.21 1454.96 L2244.13 1454.96 L2244.13 1463.43 Q2245.15 1463.08 2246.17 1462.92 Q2247.19 1462.73 2248.21 1462.73 Q2253.99 1462.73 2257.37 1465.9 Q2260.75 1469.08 2260.75 1474.49 Q2260.75 1480.07 2257.28 1483.17 Q2253.81 1486.25 2247.49 1486.25 Q2245.31 1486.25 2243.04 1485.88 Q2240.8 1485.51 2238.39 1484.77 L2238.39 1480.07 Q2240.47 1481.2 2242.7 1481.76 Q2244.92 1482.32 2247.4 1482.32 Q2251.4 1482.32 2253.74 1480.21 Q2256.08 1478.1 2256.08 1474.49 Q2256.08 1470.88 2253.74 1468.77 Q2251.4 1466.67 2247.4 1466.67 Q2245.52 1466.67 2243.65 1467.08 Q2241.79 1467.5 2239.85 1468.38 L2239.85 1451.02 Z" fill="#000000" fill-rule="nonzero" fill-opacity="1" /><path clip-path="url(#clip600)" d="M846.901 1532.4 L853.107 1532.4 L864.247 1562.31 L875.387 1532.4 L881.594 1532.4 L868.226 1568.04 L860.269 1568.04 L846.901 1532.4 Z" fill="#000000" fill-rule="nonzero" fill-opacity="1" /><path clip-path="url(#clip600)" d="M920.17 1548.76 L920.17 1551.62 L893.243 1551.62 Q893.625 1557.67 896.872 1560.85 Q900.15 1564 905.975 1564 Q909.348 1564 912.499 1563.17 Q915.682 1562.35 918.801 1560.69 L918.801 1566.23 Q915.65 1567.57 912.34 1568.27 Q909.03 1568.97 905.624 1568.97 Q897.094 1568.97 892.097 1564 Q887.132 1559.04 887.132 1550.57 Q887.132 1541.82 891.843 1536.69 Q896.585 1531.54 904.606 1531.54 Q911.799 1531.54 915.969 1536.18 Q920.17 1540.8 920.17 1548.76 M914.314 1547.04 Q914.25 1542.23 911.608 1539.37 Q908.998 1536.5 904.67 1536.5 Q899.768 1536.5 896.808 1539.27 Q893.88 1542.04 893.434 1547.07 L914.314 1547.04 Z" fill="#000000" fill-rule="nonzero" fill-opacity="1" /><path clip-path="url(#clip600)" d="M929.782 1518.52 L935.639 1518.52 L935.639 1568.04 L929.782 1568.04 L929.782 1518.52 Z" fill="#000000" fill-rule="nonzero" fill-opacity="1" /><path clip-path="url(#clip600)" d="M961.706 1536.5 Q956.996 1536.5 954.258 1540.19 Q951.521 1543.85 951.521 1550.25 Q951.521 1556.65 954.227 1560.34 Q956.964 1564 961.706 1564 Q966.385 1564 969.122 1560.31 Q971.86 1556.62 971.86 1550.25 Q971.86 1543.92 969.122 1540.23 Q966.385 1536.5 961.706 1536.5 M961.706 1531.54 Q969.345 1531.54 973.706 1536.5 Q978.066 1541.47 978.066 1550.25 Q978.066 1559 973.706 1564 Q969.345 1568.97 961.706 1568.97 Q954.036 1568.97 949.675 1564 Q945.346 1559 945.346 1550.25 Q945.346 1541.47 949.675 1536.5 Q954.036 1531.54 961.706 1531.54 Z" fill="#000000" fill-rule="nonzero" fill-opacity="1" /><path clip-path="url(#clip600)" d="M1013.43 1533.76 L1013.43 1539.24 Q1010.95 1537.87 1008.43 1537.2 Q1005.95 1536.5 1003.4 1536.5 Q997.704 1536.5 994.553 1540.13 Q991.402 1543.73 991.402 1550.25 Q991.402 1556.78 994.553 1560.4 Q997.704 1564 1003.4 1564 Q1005.95 1564 1008.43 1563.33 Q1010.95 1562.63 1013.43 1561.26 L1013.43 1566.68 Q1010.98 1567.82 1008.34 1568.39 Q1005.73 1568.97 1002.77 1568.97 Q994.713 1568.97 989.97 1563.91 Q985.228 1558.85 985.228 1550.25 Q985.228 1541.53 990.002 1536.53 Q994.808 1531.54 1003.15 1531.54 Q1005.85 1531.54 1008.43 1532.11 Q1011.01 1532.65 1013.43 1533.76 Z" fill="#000000" fill-rule="nonzero" fill-opacity="1" /><path clip-path="url(#clip600)" d="M1023.61 1532.4 L1029.47 1532.4 L1029.47 1568.04 L1023.61 1568.04 L1023.61 1532.4 M1023.61 1518.52 L1029.47 1518.52 L1029.47 1525.93 L1023.61 1525.93 L1023.61 1518.52 Z" fill="#000000" fill-rule="nonzero" fill-opacity="1" /><path clip-path="url(#clip600)" d="M1047.52 1522.27 L1047.52 1532.4 L1059.58 1532.4 L1059.58 1536.95 L1047.52 1536.95 L1047.52 1556.3 Q1047.52 1560.66 1048.69 1561.9 Q1049.9 1563.14 1053.56 1563.14 L1059.58 1563.14 L1059.58 1568.04 L1053.56 1568.04 Q1046.78 1568.04 1044.21 1565.53 Q1041.63 1562.98 1041.63 1556.3 L1041.63 1536.95 L1037.33 1536.95 L1037.33 1532.4 L1041.63 1532.4 L1041.63 1522.27 L1047.52 1522.27 Z" fill="#000000" fill-rule="nonzero" fill-opacity="1" /><path clip-path="url(#clip600)" d="M1082.11 1571.35 Q1079.63 1577.72 1077.28 1579.66 Q1074.92 1581.6 1070.97 1581.6 L1066.29 1581.6 L1066.29 1576.7 L1069.73 1576.7 Q1072.15 1576.7 1073.49 1575.56 Q1074.82 1574.41 1076.45 1570.14 L1077.5 1567.47 L1063.08 1532.4 L1069.29 1532.4 L1080.43 1560.28 L1091.57 1532.4 L1097.77 1532.4 L1082.11 1571.35 Z" fill="#000000" fill-rule="nonzero" fill-opacity="1" /><path clip-path="url(#clip600)" d="M1140.65 1518.58 Q1136.38 1525.9 1134.31 1533.06 Q1132.24 1540.23 1132.24 1547.58 Q1132.24 1554.93 1134.31 1562.16 Q1136.41 1569.35 1140.65 1576.64 L1135.55 1576.64 Q1130.78 1569.16 1128.39 1561.93 Q1126.04 1554.71 1126.04 1547.58 Q1126.04 1540.48 1128.39 1533.29 Q1130.75 1526.09 1135.55 1518.58 L1140.65 1518.58 Z" fill="#000000" fill-rule="nonzero" fill-opacity="1" /><path clip-path="url(#clip600)" d="M1153.95 1562.63 L1164.45 1562.63 L1164.45 1526.38 L1153.03 1528.67 L1153.03 1522.82 L1164.39 1520.52 L1170.82 1520.52 L1170.82 1562.63 L1181.32 1562.63 L1181.32 1568.04 L1153.95 1568.04 L1153.95 1562.63 Z" fill="#000000" fill-rule="nonzero" fill-opacity="1" /><path clip-path="url(#clip600)" d="M1208.06 1524.76 Q1203.09 1524.76 1200.58 1529.66 Q1198.1 1534.53 1198.1 1544.33 Q1198.1 1554.1 1200.58 1559 Q1203.09 1563.87 1208.06 1563.87 Q1213.06 1563.87 1215.54 1559 Q1218.05 1554.1 1218.05 1544.33 Q1218.05 1534.53 1215.54 1529.66 Q1213.06 1524.76 1208.06 1524.76 M1208.06 1519.66 Q1216.05 1519.66 1220.25 1526 Q1224.48 1532.3 1224.48 1544.33 Q1224.48 1556.33 1220.25 1562.66 Q1216.05 1568.97 1208.06 1568.97 Q1200.07 1568.97 1195.84 1562.66 Q1191.64 1556.33 1191.64 1544.33 Q1191.64 1532.3 1195.84 1526 Q1200.07 1519.66 1208.06 1519.66 Z" fill="#000000" fill-rule="nonzero" fill-opacity="1" /><path clip-path="url(#clip600)" d="M1249.53 1524.76 Q1244.57 1524.76 1242.05 1529.66 Q1239.57 1534.53 1239.57 1544.33 Q1239.57 1554.1 1242.05 1559 Q1244.57 1563.87 1249.53 1563.87 Q1254.53 1563.87 1257.01 1559 Q1259.53 1554.1 1259.53 1544.33 Q1259.53 1534.53 1257.01 1529.66 Q1254.53 1524.76 1249.53 1524.76 M1249.53 1519.66 Q1257.52 1519.66 1261.72 1526 Q1265.96 1532.3 1265.96 1544.33 Q1265.96 1556.33 1261.72 1562.66 Q1257.52 1568.97 1249.53 1568.97 Q1241.54 1568.97 1237.31 1562.66 Q1233.11 1556.33 1233.11 1544.33 Q1233.11 1532.3 1237.31 1526 Q1241.54 1519.66 1249.53 1519.66 Z" fill="#000000" fill-rule="nonzero" fill-opacity="1" /><path clip-path="url(#clip600)" d="M1291 1524.76 Q1286.04 1524.76 1283.52 1529.66 Q1281.04 1534.53 1281.04 1544.33 Q1281.04 1554.1 1283.52 1559 Q1286.04 1563.87 1291 1563.87 Q1296 1563.87 1298.48 1559 Q1301 1554.1 1301 1544.33 Q1301 1534.53 1298.48 1529.66 Q1296 1524.76 1291 1524.76 M1291 1519.66 Q1298.99 1519.66 1303.19 1526 Q1307.43 1532.3 1307.43 1544.33 Q1307.43 1556.33 1303.19 1562.66 Q1298.99 1568.97 1291 1568.97 Q1283.02 1568.97 1278.78 1562.66 Q1274.58 1556.33 1274.58 1544.33 Q1274.58 1532.3 1278.78 1526 Q1283.02 1519.66 1291 1519.66 Z" fill="#000000" fill-rule="nonzero" fill-opacity="1" /><path clip-path="url(#clip600)" d="M1338.4 1518.52 L1344.29 1518.52 L1344.29 1547.77 L1361.76 1532.4 L1369.24 1532.4 L1350.33 1549.07 L1370.03 1568.04 L1362.4 1568.04 L1344.29 1550.63 L1344.29 1568.04 L1338.4 1568.04 L1338.4 1518.52 Z" fill="#000000" fill-rule="nonzero" fill-opacity="1" /><path clip-path="url(#clip600)" d="M1404.12 1539.24 Q1406.32 1535.29 1409.37 1533.41 Q1412.43 1531.54 1416.57 1531.54 Q1422.14 1531.54 1425.16 1535.45 Q1428.19 1539.33 1428.19 1546.53 L1428.19 1568.04 L1422.3 1568.04 L1422.3 1546.72 Q1422.3 1541.59 1420.48 1539.11 Q1418.67 1536.63 1414.94 1536.63 Q1410.39 1536.63 1407.75 1539.65 Q1405.11 1542.68 1405.11 1547.9 L1405.11 1568.04 L1399.22 1568.04 L1399.22 1546.72 Q1399.22 1541.56 1397.41 1539.11 Q1395.59 1536.63 1391.81 1536.63 Q1387.32 1536.63 1384.68 1539.68 Q1382.03 1542.71 1382.03 1547.9 L1382.03 1568.04 L1376.15 1568.04 L1376.15 1532.4 L1382.03 1532.4 L1382.03 1537.93 Q1384.04 1534.66 1386.84 1533.1 Q1389.64 1531.54 1393.49 1531.54 Q1397.38 1531.54 1400.08 1533.51 Q1402.82 1535.48 1404.12 1539.24 Z" fill="#000000" fill-rule="nonzero" fill-opacity="1" /><path clip-path="url(#clip600)" d="M1450.27 1520.52 L1455.69 1520.52 L1439.13 1574.09 L1433.72 1574.09 L1450.27 1520.52 Z" fill="#000000" fill-rule="nonzero" fill-opacity="1" /><path clip-path="url(#clip600)" d="M1484.55 1533.45 L1484.55 1538.98 Q1482.07 1537.71 1479.4 1537.07 Q1476.72 1536.44 1473.86 1536.44 Q1469.5 1536.44 1467.3 1537.77 Q1465.14 1539.11 1465.14 1541.79 Q1465.14 1543.82 1466.7 1545 Q1468.26 1546.15 1472.97 1547.2 L1474.97 1547.64 Q1481.21 1548.98 1483.82 1551.43 Q1486.46 1553.85 1486.46 1558.21 Q1486.46 1563.17 1482.52 1566.07 Q1478.6 1568.97 1471.73 1568.97 Q1468.86 1568.97 1465.74 1568.39 Q1462.66 1567.85 1459.22 1566.74 L1459.22 1560.69 Q1462.46 1562.38 1465.62 1563.24 Q1468.77 1564.07 1471.85 1564.07 Q1475.99 1564.07 1478.22 1562.66 Q1480.45 1561.23 1480.45 1558.65 Q1480.45 1556.27 1478.82 1554.99 Q1477.23 1553.72 1471.79 1552.54 L1469.75 1552.07 Q1464.31 1550.92 1461.89 1548.56 Q1459.47 1546.18 1459.47 1542.04 Q1459.47 1537.01 1463.04 1534.27 Q1466.6 1531.54 1473.16 1531.54 Q1476.41 1531.54 1479.27 1532.01 Q1482.13 1532.49 1484.55 1533.45 Z" fill="#000000" fill-rule="nonzero" fill-opacity="1" /><path clip-path="url(#clip600)" d="M1526.28 1548.76 L1526.28 1551.62 L1499.35 1551.62 Q1499.74 1557.67 1502.98 1560.85 Q1506.26 1564 1512.09 1564 Q1515.46 1564 1518.61 1563.17 Q1521.79 1562.35 1524.91 1560.69 L1524.91 1566.23 Q1521.76 1567.57 1518.45 1568.27 Q1515.14 1568.97 1511.74 1568.97 Q1503.21 1568.97 1498.21 1564 Q1493.24 1559.04 1493.24 1550.57 Q1493.24 1541.82 1497.95 1536.69 Q1502.7 1531.54 1510.72 1531.54 Q1517.91 1531.54 1522.08 1536.18 Q1526.28 1540.8 1526.28 1548.76 M1520.42 1547.04 Q1520.36 1542.23 1517.72 1539.37 Q1515.11 1536.5 1510.78 1536.5 Q1505.88 1536.5 1502.92 1539.27 Q1499.99 1542.04 1499.54 1547.07 L1520.42 1547.04 Z" fill="#000000" fill-rule="nonzero" fill-opacity="1" /><path clip-path="url(#clip600)" d="M1561.55 1533.76 L1561.55 1539.24 Q1559.06 1537.87 1556.55 1537.2 Q1554.07 1536.5 1551.52 1536.5 Q1545.82 1536.5 1542.67 1540.13 Q1539.52 1543.73 1539.52 1550.25 Q1539.52 1556.78 1542.67 1560.4 Q1545.82 1564 1551.52 1564 Q1554.07 1564 1556.55 1563.33 Q1559.06 1562.63 1561.55 1561.26 L1561.55 1566.68 Q1559.1 1567.82 1556.45 1568.39 Q1553.84 1568.97 1550.88 1568.97 Q1542.83 1568.97 1538.09 1563.91 Q1533.35 1558.85 1533.35 1550.25 Q1533.35 1541.53 1538.12 1536.53 Q1542.93 1531.54 1551.27 1531.54 Q1553.97 1531.54 1556.55 1532.11 Q1559.13 1532.65 1561.55 1533.76 Z" fill="#000000" fill-rule="nonzero" fill-opacity="1" /><path clip-path="url(#clip600)" d="M1585.55 1536.5 Q1580.83 1536.5 1578.1 1540.19 Q1575.36 1543.85 1575.36 1550.25 Q1575.36 1556.65 1578.07 1560.34 Q1580.8 1564 1585.55 1564 Q1590.22 1564 1592.96 1560.31 Q1595.7 1556.62 1595.7 1550.25 Q1595.7 1543.92 1592.96 1540.23 Q1590.22 1536.5 1585.55 1536.5 M1585.55 1531.54 Q1593.18 1531.54 1597.54 1536.5 Q1601.91 1541.47 1601.91 1550.25 Q1601.91 1559 1597.54 1564 Q1593.18 1568.97 1585.55 1568.97 Q1577.87 1568.97 1573.51 1564 Q1569.19 1559 1569.19 1550.25 Q1569.19 1541.47 1573.51 1536.5 Q1577.87 1531.54 1585.55 1531.54 Z" fill="#000000" fill-rule="nonzero" fill-opacity="1" /><path clip-path="url(#clip600)" d="M1641.25 1546.53 L1641.25 1568.04 L1635.39 1568.04 L1635.39 1546.72 Q1635.39 1541.66 1633.42 1539.14 Q1631.44 1536.63 1627.5 1536.63 Q1622.75 1536.63 1620.02 1539.65 Q1617.28 1542.68 1617.28 1547.9 L1617.28 1568.04 L1611.39 1568.04 L1611.39 1532.4 L1617.28 1532.4 L1617.28 1537.93 Q1619.38 1534.72 1622.21 1533.13 Q1625.08 1531.54 1628.8 1531.54 Q1634.94 1531.54 1638.09 1535.36 Q1641.25 1539.14 1641.25 1546.53 Z" fill="#000000" fill-rule="nonzero" fill-opacity="1" /><path clip-path="url(#clip600)" d="M1676.38 1537.81 L1676.38 1518.52 L1682.24 1518.52 L1682.24 1568.04 L1676.38 1568.04 L1676.38 1562.7 Q1674.54 1565.88 1671.71 1567.44 Q1668.9 1568.97 1664.96 1568.97 Q1658.5 1568.97 1654.42 1563.81 Q1650.38 1558.65 1650.38 1550.25 Q1650.38 1541.85 1654.42 1536.69 Q1658.5 1531.54 1664.96 1531.54 Q1668.9 1531.54 1671.71 1533.1 Q1674.54 1534.62 1676.38 1537.81 M1656.43 1550.25 Q1656.43 1556.71 1659.07 1560.4 Q1661.74 1564.07 1666.39 1564.07 Q1671.04 1564.07 1673.71 1560.4 Q1676.38 1556.71 1676.38 1550.25 Q1676.38 1543.79 1673.71 1540.13 Q1671.04 1536.44 1666.39 1536.44 Q1661.74 1536.44 1659.07 1540.13 Q1656.43 1543.79 1656.43 1550.25 Z" fill="#000000" fill-rule="nonzero" fill-opacity="1" /><path clip-path="url(#clip600)" d="M1693.38 1518.58 L1698.47 1518.58 Q1703.25 1526.09 1705.6 1533.29 Q1707.99 1540.48 1707.99 1547.58 Q1707.99 1554.71 1705.6 1561.93 Q1703.25 1569.16 1698.47 1576.64 L1693.38 1576.64 Q1697.61 1569.35 1699.68 1562.16 Q1701.78 1554.93 1701.78 1547.58 Q1701.78 1540.23 1699.68 1533.06 Q1697.61 1525.9 1693.38 1518.58 Z" fill="#000000" fill-rule="nonzero" fill-opacity="1" /><polyline clip-path="url(#clip600)" style="stroke:#000000; stroke-linecap:round; stroke-linejoin:round; stroke-width:4; stroke-opacity:1; fill:none" points="202.135,1423.18 202.135,47.2441 "/>
<polyline clip-path="url(#clip600)" style="stroke:#000000; stroke-linecap:round; stroke-linejoin:round; stroke-width:4; stroke-opacity:1; fill:none" points="202.135,1423.18 221.033,1423.18 "/>
<polyline clip-path="url(#clip600)" style="stroke:#000000; stroke-linecap:round; stroke-linejoin:round; stroke-width:4; stroke-opacity:1; fill:none" points="202.135,1193.86 221.033,1193.86 "/>
<polyline clip-path="url(#clip600)" style="stroke:#000000; stroke-linecap:round; stroke-linejoin:round; stroke-width:4; stroke-opacity:1; fill:none" points="202.135,964.535 221.033,964.535 "/>
<polyline clip-path="url(#clip600)" style="stroke:#000000; stroke-linecap:round; stroke-linejoin:round; stroke-width:4; stroke-opacity:1; fill:none" points="202.135,735.212 221.033,735.212 "/>
<polyline clip-path="url(#clip600)" style="stroke:#000000; stroke-linecap:round; stroke-linejoin:round; stroke-width:4; stroke-opacity:1; fill:none" points="202.135,505.889 221.033,505.889 "/>
<polyline clip-path="url(#clip600)" style="stroke:#000000; stroke-linecap:round; stroke-linejoin:round; stroke-width:4; stroke-opacity:1; fill:none" points="202.135,276.567 221.033,276.567 "/>
<polyline clip-path="url(#clip600)" style="stroke:#000000; stroke-linecap:round; stroke-linejoin:round; stroke-width:4; stroke-opacity:1; fill:none" points="202.135,47.2441 221.033,47.2441 "/>
<path clip-path="url(#clip600)" d="M154.19 1408.98 Q150.579 1408.98 148.751 1412.54 Q146.945 1416.08 146.945 1423.21 Q146.945 1430.32 148.751 1433.89 Q150.579 1437.43 154.19 1437.43 Q157.825 1437.43 159.63 1433.89 Q161.459 1430.32 161.459 1423.21 Q161.459 1416.08 159.63 1412.54 Q157.825 1408.98 154.19 1408.98 M154.19 1405.27 Q160.001 1405.27 163.056 1409.88 Q166.135 1414.46 166.135 1423.21 Q166.135 1431.94 163.056 1436.55 Q160.001 1441.13 154.19 1441.13 Q148.38 1441.13 145.302 1436.55 Q142.246 1431.94 142.246 1423.21 Q142.246 1414.46 145.302 1409.88 Q148.38 1405.27 154.19 1405.27 Z" fill="#000000" fill-rule="nonzero" fill-opacity="1" /><path clip-path="url(#clip600)" d="M159.005 1192.5 Q162.362 1193.22 164.237 1195.49 Q166.135 1197.76 166.135 1201.09 Q166.135 1206.21 162.616 1209.01 Q159.098 1211.81 152.616 1211.81 Q150.441 1211.81 148.126 1211.37 Q145.834 1210.95 143.38 1210.1 L143.38 1205.58 Q145.325 1206.72 147.64 1207.29 Q149.954 1207.87 152.478 1207.87 Q156.876 1207.87 159.167 1206.14 Q161.482 1204.4 161.482 1201.09 Q161.482 1198.04 159.329 1196.32 Q157.2 1194.59 153.38 1194.59 L149.353 1194.59 L149.353 1190.74 L153.566 1190.74 Q157.015 1190.74 158.843 1189.38 Q160.672 1187.99 160.672 1185.4 Q160.672 1182.73 158.774 1181.32 Q156.899 1179.89 153.38 1179.89 Q151.459 1179.89 149.26 1180.3 Q147.061 1180.72 144.422 1181.6 L144.422 1177.43 Q147.084 1176.69 149.399 1176.32 Q151.737 1175.95 153.797 1175.95 Q159.121 1175.95 162.223 1178.38 Q165.325 1180.79 165.325 1184.91 Q165.325 1187.78 163.681 1189.77 Q162.038 1191.74 159.005 1192.5 Z" fill="#000000" fill-rule="nonzero" fill-opacity="1" /><path clip-path="url(#clip600)" d="M154.607 962.671 Q151.459 962.671 149.607 964.824 Q147.778 966.977 147.778 970.727 Q147.778 974.454 149.607 976.629 Q151.459 978.782 154.607 978.782 Q157.755 978.782 159.584 976.629 Q161.436 974.454 161.436 970.727 Q161.436 966.977 159.584 964.824 Q157.755 962.671 154.607 962.671 M163.89 948.018 L163.89 952.278 Q162.13 951.444 160.325 951.005 Q158.542 950.565 156.783 950.565 Q152.153 950.565 149.7 953.69 Q147.269 956.815 146.922 963.134 Q148.288 961.12 150.348 960.055 Q152.408 958.967 154.885 958.967 Q160.093 958.967 163.102 962.139 Q166.135 965.287 166.135 970.727 Q166.135 976.051 162.987 979.268 Q159.839 982.486 154.607 982.486 Q148.612 982.486 145.441 977.903 Q142.269 973.296 142.269 964.569 Q142.269 956.375 146.158 951.514 Q150.047 946.63 156.598 946.63 Q158.357 946.63 160.14 946.977 Q161.945 947.324 163.89 948.018 Z" fill="#000000" fill-rule="nonzero" fill-opacity="1" /><path clip-path="url(#clip600)" d="M144.515 751.774 L144.515 747.515 Q146.274 748.348 148.079 748.788 Q149.885 749.228 151.621 749.228 Q156.251 749.228 158.681 746.126 Q161.135 743.001 161.482 736.659 Q160.14 738.649 158.079 739.714 Q156.019 740.779 153.519 740.779 Q148.334 740.779 145.302 737.654 Q142.292 734.506 142.292 729.066 Q142.292 723.742 145.441 720.525 Q148.589 717.307 153.82 717.307 Q159.815 717.307 162.964 721.913 Q166.135 726.497 166.135 735.247 Q166.135 743.418 162.246 748.302 Q158.38 753.163 151.829 753.163 Q150.07 753.163 148.265 752.816 Q146.459 752.469 144.515 751.774 M153.82 737.122 Q156.968 737.122 158.797 734.969 Q160.649 732.816 160.649 729.066 Q160.649 725.339 158.797 723.187 Q156.968 721.011 153.82 721.011 Q150.672 721.011 148.82 723.187 Q146.991 725.339 146.991 729.066 Q146.991 732.816 148.82 734.969 Q150.672 737.122 153.82 737.122 Z" fill="#000000" fill-rule="nonzero" fill-opacity="1" /><path clip-path="url(#clip600)" d="M116.436 519.234 L124.075 519.234 L124.075 492.869 L115.765 494.535 L115.765 490.276 L124.029 488.609 L128.705 488.609 L128.705 519.234 L136.343 519.234 L136.343 523.169 L116.436 523.169 L116.436 519.234 Z" fill="#000000" fill-rule="nonzero" fill-opacity="1" /><path clip-path="url(#clip600)" d="M149.816 519.234 L166.135 519.234 L166.135 523.169 L144.191 523.169 L144.191 519.234 Q146.853 516.48 151.436 511.85 Q156.042 507.197 157.223 505.855 Q159.468 503.331 160.348 501.595 Q161.251 499.836 161.251 498.146 Q161.251 495.392 159.306 493.656 Q157.385 491.92 154.283 491.92 Q152.084 491.92 149.63 492.683 Q147.2 493.447 144.422 494.998 L144.422 490.276 Q147.246 489.142 149.7 488.563 Q152.153 487.984 154.19 487.984 Q159.561 487.984 162.755 490.67 Q165.95 493.355 165.95 497.845 Q165.95 499.975 165.14 501.896 Q164.352 503.794 162.246 506.387 Q161.667 507.058 158.565 510.276 Q155.464 513.47 149.816 519.234 Z" fill="#000000" fill-rule="nonzero" fill-opacity="1" /><path clip-path="url(#clip600)" d="M115.834 289.912 L123.473 289.912 L123.473 263.546 L115.163 265.213 L115.163 260.953 L123.427 259.287 L128.103 259.287 L128.103 289.912 L135.742 289.912 L135.742 293.847 L115.834 293.847 L115.834 289.912 Z" fill="#000000" fill-rule="nonzero" fill-opacity="1" /><path clip-path="url(#clip600)" d="M145.232 259.287 L163.589 259.287 L163.589 263.222 L149.515 263.222 L149.515 271.694 Q150.533 271.347 151.552 271.185 Q152.57 271 153.589 271 Q159.376 271 162.755 274.171 Q166.135 277.342 166.135 282.759 Q166.135 288.337 162.663 291.439 Q159.19 294.518 152.871 294.518 Q150.695 294.518 148.427 294.148 Q146.181 293.777 143.774 293.037 L143.774 288.337 Q145.857 289.472 148.079 290.027 Q150.302 290.583 152.778 290.583 Q156.783 290.583 159.121 288.476 Q161.459 286.37 161.459 282.759 Q161.459 279.148 159.121 277.041 Q156.783 274.935 152.778 274.935 Q150.903 274.935 149.028 275.351 Q147.177 275.768 145.232 276.648 L145.232 259.287 Z" fill="#000000" fill-rule="nonzero" fill-opacity="1" /><path clip-path="url(#clip600)" d="M114.931 60.5889 L122.57 60.5889 L122.57 34.2233 L114.26 35.89 L114.26 31.6308 L122.524 29.9641 L127.2 29.9641 L127.2 60.5889 L134.839 60.5889 L134.839 64.5241 L114.931 64.5241 L114.931 60.5889 Z" fill="#000000" fill-rule="nonzero" fill-opacity="1" /><path clip-path="url(#clip600)" d="M154.283 48.1121 Q150.95 48.1121 149.028 49.8945 Q147.13 51.6769 147.13 54.8019 Q147.13 57.9269 149.028 59.7093 Q150.95 61.4917 154.283 61.4917 Q157.616 61.4917 159.538 59.7093 Q161.459 57.9038 161.459 54.8019 Q161.459 51.6769 159.538 49.8945 Q157.64 48.1121 154.283 48.1121 M149.607 46.1214 Q146.598 45.3807 144.908 43.3205 Q143.241 41.2603 143.241 38.2974 Q143.241 34.1539 146.181 31.7465 Q149.144 29.3391 154.283 29.3391 Q159.445 29.3391 162.385 31.7465 Q165.325 34.1539 165.325 38.2974 Q165.325 41.2603 163.635 43.3205 Q161.968 45.3807 158.982 46.1214 Q162.362 46.9084 164.237 49.2001 Q166.135 51.4918 166.135 54.8019 Q166.135 59.825 163.056 62.5102 Q160.001 65.1954 154.283 65.1954 Q148.566 65.1954 145.487 62.5102 Q142.431 59.825 142.431 54.8019 Q142.431 51.4918 144.329 49.2001 Q146.228 46.9084 149.607 46.1214 M147.894 38.7372 Q147.894 41.4224 149.561 42.927 Q151.251 44.4316 154.283 44.4316 Q157.292 44.4316 158.982 42.927 Q160.695 41.4224 160.695 38.7372 Q160.695 36.052 158.982 34.5474 Q157.292 33.0428 154.283 33.0428 Q151.251 33.0428 149.561 34.5474 Q147.894 36.052 147.894 38.7372 Z" fill="#000000" fill-rule="nonzero" fill-opacity="1" /><path clip-path="url(#clip600)" d="M45.7664 840.883 Q39.4007 840.883 35.8996 843.524 Q32.3984 846.134 32.3984 850.877 Q32.3984 855.587 35.8996 858.229 Q39.4007 860.839 45.7664 860.839 Q52.1003 860.839 55.6014 858.229 Q59.1026 855.587 59.1026 850.877 Q59.1026 846.134 55.6014 843.524 Q52.1003 840.883 45.7664 840.883 M59.58 835.026 Q68.683 835.026 73.1071 839.068 Q77.5631 843.111 77.5631 851.45 Q77.5631 854.537 77.0857 857.274 Q76.6401 860.012 75.6852 862.59 L69.9879 862.59 Q71.3884 860.012 72.0568 857.497 Q72.7252 854.983 72.7252 852.373 Q72.7252 846.612 69.7015 843.747 Q66.7096 840.883 60.6303 840.883 L57.7339 840.883 Q60.885 842.697 62.4446 845.53 Q64.0042 848.362 64.0042 852.309 Q64.0042 858.866 59.0071 862.876 Q54.01 866.887 45.7664 866.887 Q37.491 866.887 32.4939 862.876 Q27.4968 858.866 27.4968 852.309 Q27.4968 848.362 29.0564 845.53 Q30.616 842.697 33.7671 840.883 L28.3562 840.883 L28.3562 835.026 L59.58 835.026 Z" fill="#000000" fill-rule="nonzero" fill-opacity="1" /><path clip-path="url(#clip600)" d="M46.0847 806.763 Q46.0847 813.86 47.7079 816.598 Q49.3312 819.335 53.2461 819.335 Q56.3653 819.335 58.2114 817.298 Q60.0256 815.229 60.0256 811.696 Q60.0256 806.826 56.5881 803.898 Q53.1188 800.938 47.3897 800.938 L46.0847 800.938 L46.0847 806.763 M43.6657 795.081 L64.0042 795.081 L64.0042 800.938 L58.5933 800.938 Q61.8398 802.943 63.3994 805.935 Q64.9272 808.927 64.9272 813.256 Q64.9272 818.73 61.8716 821.977 Q58.7843 825.191 53.6281 825.191 Q47.6125 825.191 44.5569 821.181 Q41.5014 817.139 41.5014 809.15 L41.5014 800.938 L40.9285 800.938 Q36.8862 800.938 34.6901 803.611 Q32.4621 806.253 32.4621 811.059 Q32.4621 814.115 33.1941 817.011 Q33.9262 819.908 35.3903 822.581 L29.9795 822.581 Q28.7381 819.367 28.1334 816.343 Q27.4968 813.319 27.4968 810.455 Q27.4968 802.72 31.5072 798.901 Q35.5176 795.081 43.6657 795.081 Z" fill="#000000" fill-rule="nonzero" fill-opacity="1" /><path clip-path="url(#clip600)" d="M14.479 783.018 L14.479 777.162 L64.0042 777.162 L64.0042 783.018 L14.479 783.018 Z" fill="#000000" fill-rule="nonzero" fill-opacity="1" /><path clip-path="url(#clip600)" d="M46.0847 748.707 Q46.0847 755.805 47.7079 758.542 Q49.3312 761.28 53.2461 761.28 Q56.3653 761.28 58.2114 759.243 Q60.0256 757.174 60.0256 753.641 Q60.0256 748.771 56.5881 745.843 Q53.1188 742.883 47.3897 742.883 L46.0847 742.883 L46.0847 748.707 M43.6657 737.026 L64.0042 737.026 L64.0042 742.883 L58.5933 742.883 Q61.8398 744.888 63.3994 747.88 Q64.9272 750.872 64.9272 755.2 Q64.9272 760.675 61.8716 763.921 Q58.7843 767.136 53.6281 767.136 Q47.6125 767.136 44.5569 763.126 Q41.5014 759.083 41.5014 751.094 L41.5014 742.883 L40.9285 742.883 Q36.8862 742.883 34.6901 745.556 Q32.4621 748.198 32.4621 753.004 Q32.4621 756.06 33.1941 758.956 Q33.9262 761.852 35.3903 764.526 L29.9795 764.526 Q28.7381 761.311 28.1334 758.288 Q27.4968 755.264 27.4968 752.399 Q27.4968 744.665 31.5072 740.846 Q35.5176 737.026 43.6657 737.026 Z" fill="#000000" fill-rule="nonzero" fill-opacity="1" /><path clip-path="url(#clip600)" d="M28.3562 695.331 L45.7028 708.221 L64.0042 694.662 L64.0042 701.569 L49.9996 711.945 L64.0042 722.321 L64.0042 729.228 L45.3526 715.383 L28.3562 728.051 L28.3562 721.144 L41.0558 711.691 L28.3562 702.238 L28.3562 695.331 Z" fill="#000000" fill-rule="nonzero" fill-opacity="1" /><path clip-path="url(#clip600)" d="M28.3562 686.387 L28.3562 680.531 L64.0042 680.531 L64.0042 686.387 L28.3562 686.387 M14.479 686.387 L14.479 680.531 L21.895 680.531 L21.895 686.387 L14.479 686.387 Z" fill="#000000" fill-rule="nonzero" fill-opacity="1" /><path clip-path="url(#clip600)" d="M44.7161 637.785 L47.5806 637.785 L47.5806 664.712 Q53.6281 664.33 56.8109 661.083 Q59.9619 657.805 59.9619 651.98 Q59.9619 648.607 59.1344 645.456 Q58.3069 642.273 56.6518 639.153 L62.1899 639.153 Q63.5267 642.304 64.227 645.615 Q64.9272 648.925 64.9272 652.33 Q64.9272 660.861 59.9619 665.858 Q54.9967 670.823 46.5303 670.823 Q37.7774 670.823 32.6531 666.112 Q27.4968 661.37 27.4968 653.349 Q27.4968 646.156 32.1438 641.986 Q36.7589 637.785 44.7161 637.785 M42.9973 643.641 Q38.1912 643.705 35.3266 646.347 Q32.4621 648.957 32.4621 653.285 Q32.4621 658.187 35.2312 661.147 Q38.0002 664.075 43.0292 664.521 L42.9973 643.641 Z" fill="#000000" fill-rule="nonzero" fill-opacity="1" /><path clip-path="url(#clip600)" d="M29.4065 605.447 L34.9447 605.447 Q33.6716 607.93 33.035 610.603 Q32.3984 613.277 32.3984 616.141 Q32.3984 620.502 33.7352 622.698 Q35.072 624.862 37.7456 624.862 Q39.7826 624.862 40.9603 623.303 Q42.1061 621.743 43.1565 617.033 L43.6021 615.027 Q44.9389 608.789 47.3897 606.179 Q49.8086 603.537 54.1691 603.537 Q59.1344 603.537 62.0308 607.484 Q64.9272 611.399 64.9272 618.274 Q64.9272 621.139 64.3543 624.258 Q63.8132 627.345 62.6992 630.783 L56.6518 630.783 Q58.3387 627.536 59.198 624.385 Q60.0256 621.234 60.0256 618.147 Q60.0256 614.009 58.6251 611.781 Q57.1929 609.553 54.6147 609.553 Q52.2276 609.553 50.9545 611.176 Q49.6813 612.768 48.5037 618.21 L48.0262 620.247 Q46.8804 625.69 44.5251 628.109 Q42.138 630.528 38.0002 630.528 Q32.9713 630.528 30.2341 626.963 Q27.4968 623.398 27.4968 616.842 Q27.4968 613.595 27.9743 610.731 Q28.4517 607.866 29.4065 605.447 Z" fill="#000000" fill-rule="nonzero" fill-opacity="1" /><path clip-path="url(#clip601)" d="M320.423 1040.98 L320.423 1423.18 L394.04 1423.18 L394.04 1040.98 L320.423 1040.98 L320.423 1040.98  Z" fill="#b3b3b3" fill-rule="evenodd" fill-opacity="1"/>
<polyline clip-path="url(#clip601)" style="stroke:#ffffff; stroke-linecap:round; stroke-linejoin:round; stroke-width:4; stroke-opacity:1; fill:none" points="320.423,1040.98 320.423,1423.18 394.04,1423.18 394.04,1040.98 320.423,1040.98 "/>
<path clip-path="url(#clip601)" d="M394.04 1270.3 L394.04 1423.18 L467.657 1423.18 L467.657 1270.3 L394.04 1270.3 L394.04 1270.3  Z" fill="#b3b3b3" fill-rule="evenodd" fill-opacity="1"/>
<polyline clip-path="url(#clip601)" style="stroke:#ffffff; stroke-linecap:round; stroke-linejoin:round; stroke-width:4; stroke-opacity:1; fill:none" points="394.04,1270.3 394.04,1423.18 467.657,1423.18 467.657,1270.3 394.04,1270.3 "/>
<path clip-path="url(#clip601)" d="M467.657 1423.18 L467.657 1423.18 L541.274 1423.18 L541.274 1423.18 L467.657 1423.18 L467.657 1423.18  Z" fill="#b3b3b3" fill-rule="evenodd" fill-opacity="1"/>
<polyline clip-path="url(#clip601)" style="stroke:#ffffff; stroke-linecap:round; stroke-linejoin:round; stroke-width:4; stroke-opacity:1; fill:none" points="467.657,1423.18 467.657,1423.18 541.274,1423.18 467.657,1423.18 "/>
<path clip-path="url(#clip601)" d="M541.274 1423.18 L541.274 1423.18 L614.891 1423.18 L614.891 1423.18 L541.274 1423.18 L541.274 1423.18  Z" fill="#b3b3b3" fill-rule="evenodd" fill-opacity="1"/>
<polyline clip-path="url(#clip601)" style="stroke:#ffffff; stroke-linecap:round; stroke-linejoin:round; stroke-width:4; stroke-opacity:1; fill:none" points="541.274,1423.18 541.274,1423.18 614.891,1423.18 541.274,1423.18 "/>
<path clip-path="url(#clip601)" d="M614.891 1423.18 L614.891 1423.18 L688.508 1423.18 L688.508 1423.18 L614.891 1423.18 L614.891 1423.18  Z" fill="#b3b3b3" fill-rule="evenodd" fill-opacity="1"/>
<polyline clip-path="url(#clip601)" style="stroke:#ffffff; stroke-linecap:round; stroke-linejoin:round; stroke-width:4; stroke-opacity:1; fill:none" points="614.891,1423.18 614.891,1423.18 688.508,1423.18 614.891,1423.18 "/>
<path clip-path="url(#clip601)" d="M688.508 1423.18 L688.508 1423.18 L762.126 1423.18 L762.126 1423.18 L688.508 1423.18 L688.508 1423.18  Z" fill="#b3b3b3" fill-rule="evenodd" fill-opacity="1"/>
<polyline clip-path="url(#clip601)" style="stroke:#ffffff; stroke-linecap:round; stroke-linejoin:round; stroke-width:4; stroke-opacity:1; fill:none" points="688.508,1423.18 688.508,1423.18 762.126,1423.18 688.508,1423.18 "/>
<path clip-path="url(#clip601)" d="M762.126 1423.18 L762.126 1423.18 L835.743 1423.18 L835.743 1423.18 L762.126 1423.18 L762.126 1423.18  Z" fill="#b3b3b3" fill-rule="evenodd" fill-opacity="1"/>
<polyline clip-path="url(#clip601)" style="stroke:#ffffff; stroke-linecap:round; stroke-linejoin:round; stroke-width:4; stroke-opacity:1; fill:none" points="762.126,1423.18 762.126,1423.18 835.743,1423.18 762.126,1423.18 "/>
<path clip-path="url(#clip601)" d="M835.743 1270.3 L835.743 1423.18 L909.36 1423.18 L909.36 1270.3 L835.743 1270.3 L835.743 1270.3  Z" fill="#b3b3b3" fill-rule="evenodd" fill-opacity="1"/>
<polyline clip-path="url(#clip601)" style="stroke:#ffffff; stroke-linecap:round; stroke-linejoin:round; stroke-width:4; stroke-opacity:1; fill:none" points="835.743,1270.3 835.743,1423.18 909.36,1423.18 909.36,1270.3 835.743,1270.3 "/>
<path clip-path="url(#clip601)" d="M909.36 1423.18 L909.36 1423.18 L982.977 1423.18 L982.977 1423.18 L909.36 1423.18 L909.36 1423.18  Z" fill="#b3b3b3" fill-rule="evenodd" fill-opacity="1"/>
<polyline clip-path="url(#clip601)" style="stroke:#ffffff; stroke-linecap:round; stroke-linejoin:round; stroke-width:4; stroke-opacity:1; fill:none" points="909.36,1423.18 909.36,1423.18 982.977,1423.18 909.36,1423.18 "/>
<path clip-path="url(#clip601)" d="M982.977 1117.42 L982.977 1423.18 L1056.59 1423.18 L1056.59 1117.42 L982.977 1117.42 L982.977 1117.42  Z" fill="#b3b3b3" fill-rule="evenodd" fill-opacity="1"/>
<polyline clip-path="url(#clip601)" style="stroke:#ffffff; stroke-linecap:round; stroke-linejoin:round; stroke-width:4; stroke-opacity:1; fill:none" points="982.977,1117.42 982.977,1423.18 1056.59,1423.18 1056.59,1117.42 982.977,1117.42 "/>
<path clip-path="url(#clip601)" d="M1056.59 47.2441 L1056.59 1423.18 L1130.21 1423.18 L1130.21 47.2441 L1056.59 47.2441 L1056.59 47.2441  Z" fill="#b3b3b3" fill-rule="evenodd" fill-opacity="1"/>
<polyline clip-path="url(#clip601)" style="stroke:#ffffff; stroke-linecap:round; stroke-linejoin:round; stroke-width:4; stroke-opacity:1; fill:none" points="1056.59,47.2441 1056.59,1423.18 1130.21,1423.18 1130.21,47.2441 1056.59,47.2441 "/>
<path clip-path="url(#clip601)" d="M1130.21 429.448 L1130.21 1423.18 L1203.83 1423.18 L1203.83 429.448 L1130.21 429.448 L1130.21 429.448  Z" fill="#b3b3b3" fill-rule="evenodd" fill-opacity="1"/>
<polyline clip-path="url(#clip601)" style="stroke:#ffffff; stroke-linecap:round; stroke-linejoin:round; stroke-width:4; stroke-opacity:1; fill:none" points="1130.21,429.448 1130.21,1423.18 1203.83,1423.18 1203.83,429.448 1130.21,429.448 "/>
<path clip-path="url(#clip601)" d="M1203.83 964.535 L1203.83 1423.18 L1277.45 1423.18 L1277.45 964.535 L1203.83 964.535 L1203.83 964.535  Z" fill="#b3b3b3" fill-rule="evenodd" fill-opacity="1"/>
<polyline clip-path="url(#clip601)" style="stroke:#ffffff; stroke-linecap:round; stroke-linejoin:round; stroke-width:4; stroke-opacity:1; fill:none" points="1203.83,964.535 1203.83,1423.18 1277.45,1423.18 1277.45,964.535 1203.83,964.535 "/>
<path clip-path="url(#clip601)" d="M1277.45 582.33 L1277.45 1423.18 L1351.06 1423.18 L1351.06 582.33 L1277.45 582.33 L1277.45 582.33  Z" fill="#b3b3b3" fill-rule="evenodd" fill-opacity="1"/>
<polyline clip-path="url(#clip601)" style="stroke:#ffffff; stroke-linecap:round; stroke-linejoin:round; stroke-width:4; stroke-opacity:1; fill:none" points="1277.45,582.33 1277.45,1423.18 1351.06,1423.18 1351.06,582.33 1277.45,582.33 "/>
<path clip-path="url(#clip601)" d="M1351.06 735.212 L1351.06 1423.18 L1424.68 1423.18 L1424.68 735.212 L1351.06 735.212 L1351.06 735.212  Z" fill="#b3b3b3" fill-rule="evenodd" fill-opacity="1"/>
<polyline clip-path="url(#clip601)" style="stroke:#ffffff; stroke-linecap:round; stroke-linejoin:round; stroke-width:4; stroke-opacity:1; fill:none" points="1351.06,735.212 1351.06,1423.18 1424.68,1423.18 1424.68,735.212 1351.06,735.212 "/>
<path clip-path="url(#clip601)" d="M1424.68 964.535 L1424.68 1423.18 L1498.3 1423.18 L1498.3 964.535 L1424.68 964.535 L1424.68 964.535  Z" fill="#b3b3b3" fill-rule="evenodd" fill-opacity="1"/>
<polyline clip-path="url(#clip601)" style="stroke:#ffffff; stroke-linecap:round; stroke-linejoin:round; stroke-width:4; stroke-opacity:1; fill:none" points="1424.68,964.535 1424.68,1423.18 1498.3,1423.18 1498.3,964.535 1424.68,964.535 "/>
<path clip-path="url(#clip601)" d="M1498.3 1346.74 L1498.3 1423.18 L1571.91 1423.18 L1571.91 1346.74 L1498.3 1346.74 L1498.3 1346.74  Z" fill="#b3b3b3" fill-rule="evenodd" fill-opacity="1"/>
<polyline clip-path="url(#clip601)" style="stroke:#ffffff; stroke-linecap:round; stroke-linejoin:round; stroke-width:4; stroke-opacity:1; fill:none" points="1498.3,1346.74 1498.3,1423.18 1571.91,1423.18 1571.91,1346.74 1498.3,1346.74 "/>
<path clip-path="url(#clip601)" d="M1571.91 1270.3 L1571.91 1423.18 L1645.53 1423.18 L1645.53 1270.3 L1571.91 1270.3 L1571.91 1270.3  Z" fill="#b3b3b3" fill-rule="evenodd" fill-opacity="1"/>
<polyline clip-path="url(#clip601)" style="stroke:#ffffff; stroke-linecap:round; stroke-linejoin:round; stroke-width:4; stroke-opacity:1; fill:none" points="1571.91,1270.3 1571.91,1423.18 1645.53,1423.18 1645.53,1270.3 1571.91,1270.3 "/>
<path clip-path="url(#clip601)" d="M1645.53 1423.18 L1645.53 1423.18 L1719.15 1423.18 L1719.15 1423.18 L1645.53 1423.18 L1645.53 1423.18  Z" fill="#b3b3b3" fill-rule="evenodd" fill-opacity="1"/>
<polyline clip-path="url(#clip601)" style="stroke:#ffffff; stroke-linecap:round; stroke-linejoin:round; stroke-width:4; stroke-opacity:1; fill:none" points="1645.53,1423.18 1645.53,1423.18 1719.15,1423.18 1645.53,1423.18 "/>
<path clip-path="url(#clip601)" d="M1719.15 1423.18 L1719.15 1423.18 L1792.77 1423.18 L1792.77 1423.18 L1719.15 1423.18 L1719.15 1423.18  Z" fill="#b3b3b3" fill-rule="evenodd" fill-opacity="1"/>
<polyline clip-path="url(#clip601)" style="stroke:#ffffff; stroke-linecap:round; stroke-linejoin:round; stroke-width:4; stroke-opacity:1; fill:none" points="1719.15,1423.18 1719.15,1423.18 1792.77,1423.18 1719.15,1423.18 "/>
<path clip-path="url(#clip601)" d="M1792.77 1423.18 L1792.77 1423.18 L1866.38 1423.18 L1866.38 1423.18 L1792.77 1423.18 L1792.77 1423.18  Z" fill="#b3b3b3" fill-rule="evenodd" fill-opacity="1"/>
<polyline clip-path="url(#clip601)" style="stroke:#ffffff; stroke-linecap:round; stroke-linejoin:round; stroke-width:4; stroke-opacity:1; fill:none" points="1792.77,1423.18 1792.77,1423.18 1866.38,1423.18 1792.77,1423.18 "/>
<path clip-path="url(#clip601)" d="M1866.38 1423.18 L1866.38 1423.18 L1940 1423.18 L1940 1423.18 L1866.38 1423.18 L1866.38 1423.18  Z" fill="#b3b3b3" fill-rule="evenodd" fill-opacity="1"/>
<polyline clip-path="url(#clip601)" style="stroke:#ffffff; stroke-linecap:round; stroke-linejoin:round; stroke-width:4; stroke-opacity:1; fill:none" points="1866.38,1423.18 1866.38,1423.18 1940,1423.18 1866.38,1423.18 "/>
<path clip-path="url(#clip601)" d="M1940 1423.18 L1940 1423.18 L2013.62 1423.18 L2013.62 1423.18 L1940 1423.18 L1940 1423.18  Z" fill="#b3b3b3" fill-rule="evenodd" fill-opacity="1"/>
<polyline clip-path="url(#clip601)" style="stroke:#ffffff; stroke-linecap:round; stroke-linejoin:round; stroke-width:4; stroke-opacity:1; fill:none" points="1940,1423.18 1940,1423.18 2013.62,1423.18 1940,1423.18 "/>
<path clip-path="url(#clip601)" d="M2013.62 1270.3 L2013.62 1423.18 L2087.23 1423.18 L2087.23 1270.3 L2013.62 1270.3 L2013.62 1270.3  Z" fill="#b3b3b3" fill-rule="evenodd" fill-opacity="1"/>
<polyline clip-path="url(#clip601)" style="stroke:#ffffff; stroke-linecap:round; stroke-linejoin:round; stroke-width:4; stroke-opacity:1; fill:none" points="2013.62,1270.3 2013.62,1423.18 2087.23,1423.18 2087.23,1270.3 2013.62,1270.3 "/>
<path clip-path="url(#clip601)" d="M2087.23 1423.18 L2087.23 1423.18 L2160.85 1423.18 L2160.85 1423.18 L2087.23 1423.18 L2087.23 1423.18  Z" fill="#b3b3b3" fill-rule="evenodd" fill-opacity="1"/>
<polyline clip-path="url(#clip601)" style="stroke:#ffffff; stroke-linecap:round; stroke-linejoin:round; stroke-width:4; stroke-opacity:1; fill:none" points="2087.23,1423.18 2087.23,1423.18 2160.85,1423.18 2087.23,1423.18 "/>
<path clip-path="url(#clip601)" d="M2160.85 1346.74 L2160.85 1423.18 L2234.47 1423.18 L2234.47 1346.74 L2160.85 1346.74 L2160.85 1346.74  Z" fill="#b3b3b3" fill-rule="evenodd" fill-opacity="1"/>
<polyline clip-path="url(#clip601)" style="stroke:#ffffff; stroke-linecap:round; stroke-linejoin:round; stroke-width:4; stroke-opacity:1; fill:none" points="2160.85,1346.74 2160.85,1423.18 2234.47,1423.18 2234.47,1346.74 2160.85,1346.74 "/>
<circle clip-path="url(#clip601)" style="fill:#b3b3b3; stroke:none; fill-opacity:0" cx="357.231" cy="1040.98" r="2"/>
<circle clip-path="url(#clip601)" style="fill:#b3b3b3; stroke:none; fill-opacity:0" cx="430.849" cy="1270.3" r="2"/>
<circle clip-path="url(#clip601)" style="fill:#b3b3b3; stroke:none; fill-opacity:0" cx="504.466" cy="1423.18" r="2"/>
<circle clip-path="url(#clip601)" style="fill:#b3b3b3; stroke:none; fill-opacity:0" cx="578.083" cy="1423.18" r="2"/>
<circle clip-path="url(#clip601)" style="fill:#b3b3b3; stroke:none; fill-opacity:0" cx="651.7" cy="1423.18" r="2"/>
<circle clip-path="url(#clip601)" style="fill:#b3b3b3; stroke:none; fill-opacity:0" cx="725.317" cy="1423.18" r="2"/>
<circle clip-path="url(#clip601)" style="fill:#b3b3b3; stroke:none; fill-opacity:0" cx="798.934" cy="1423.18" r="2"/>
<circle clip-path="url(#clip601)" style="fill:#b3b3b3; stroke:none; fill-opacity:0" cx="872.551" cy="1270.3" r="2"/>
<circle clip-path="url(#clip601)" style="fill:#b3b3b3; stroke:none; fill-opacity:0" cx="946.168" cy="1423.18" r="2"/>
<circle clip-path="url(#clip601)" style="fill:#b3b3b3; stroke:none; fill-opacity:0" cx="1019.79" cy="1117.42" r="2"/>
<circle clip-path="url(#clip601)" style="fill:#b3b3b3; stroke:none; fill-opacity:0" cx="1093.4" cy="47.2441" r="2"/>
<circle clip-path="url(#clip601)" style="fill:#b3b3b3; stroke:none; fill-opacity:0" cx="1167.02" cy="429.448" r="2"/>
<circle clip-path="url(#clip601)" style="fill:#b3b3b3; stroke:none; fill-opacity:0" cx="1240.64" cy="964.535" r="2"/>
<circle clip-path="url(#clip601)" style="fill:#b3b3b3; stroke:none; fill-opacity:0" cx="1314.25" cy="582.33" r="2"/>
<circle clip-path="url(#clip601)" style="fill:#b3b3b3; stroke:none; fill-opacity:0" cx="1387.87" cy="735.212" r="2"/>
<circle clip-path="url(#clip601)" style="fill:#b3b3b3; stroke:none; fill-opacity:0" cx="1461.49" cy="964.535" r="2"/>
<circle clip-path="url(#clip601)" style="fill:#b3b3b3; stroke:none; fill-opacity:0" cx="1535.11" cy="1346.74" r="2"/>
<circle clip-path="url(#clip601)" style="fill:#b3b3b3; stroke:none; fill-opacity:0" cx="1608.72" cy="1270.3" r="2"/>
<circle clip-path="url(#clip601)" style="fill:#b3b3b3; stroke:none; fill-opacity:0" cx="1682.34" cy="1423.18" r="2"/>
<circle clip-path="url(#clip601)" style="fill:#b3b3b3; stroke:none; fill-opacity:0" cx="1755.96" cy="1423.18" r="2"/>
<circle clip-path="url(#clip601)" style="fill:#b3b3b3; stroke:none; fill-opacity:0" cx="1829.57" cy="1423.18" r="2"/>
<circle clip-path="url(#clip601)" style="fill:#b3b3b3; stroke:none; fill-opacity:0" cx="1903.19" cy="1423.18" r="2"/>
<circle clip-path="url(#clip601)" style="fill:#b3b3b3; stroke:none; fill-opacity:0" cx="1976.81" cy="1423.18" r="2"/>
<circle clip-path="url(#clip601)" style="fill:#b3b3b3; stroke:none; fill-opacity:0" cx="2050.43" cy="1270.3" r="2"/>
<circle clip-path="url(#clip601)" style="fill:#b3b3b3; stroke:none; fill-opacity:0" cx="2124.04" cy="1423.18" r="2"/>
<circle clip-path="url(#clip601)" style="fill:#b3b3b3; stroke:none; fill-opacity:0" cx="2197.66" cy="1346.74" r="2"/>
</svg>
